<!DOCTYPE svg PUBLIC "-//W3C//DTD SVG 20010904//EN" "http://www.w3.org/TR/2001/REC-SVG-20010904/DTD/svg10.dtd">
<svg version="1.0" xmlns="http://www.w3.org/2000/svg" width="128px" height="128px" viewBox="0 0 1280 1280" preserveAspectRatio="xMidYMid meet">
<g id="layer101" fill="#0b0b0b" stroke="none">
<path d="M865 1109 c-188 -34 -272 -62 -405 -131 -166 -87 -345 -202 -385 -247 -61 -68 -75 -101 -75 -176 0 -78 7 -92 77 -166 28 -29 54 -72 73 -118 34 -84 76 -141 125 -171 31 -19 48 -21 277 -21 268 -1 366 10 483 57 85 34 155 95 155 136 0 35 12 59 57 114 31 39 33 45 33 120 0 71 -5 91 -45 188 -42 101 -45 116 -45 198 0 74 -4 94 -22 122 -29 44 -77 76 -141 93 -57 15 -89 15 -162 2z"/>
</g>
<g id="layer102" fill="#494949" stroke="none">
<path d="M865 1109 c-188 -34 -272 -62 -405 -131 -313 -164 -461 -288 -459 -383 0 -28 1 -27 13 12 31 98 165 203 447 351 116 61 155 76 270 104 229 54 347 41 413 -45 22 -28 26 -45 29 -132 4 -89 9 -111 47 -200 39 -94 60 -132 60 -109 0 5 -20 59 -45 118 -42 101 -45 116 -45 198 0 74 -4 94 -22 122 -29 44 -77 76 -141 93 -57 15 -89 15 -162 2z"/>
<path d="M851 1069 c-35 -5 -95 -21 -134 -34 -39 -14 -84 -25 -100 -25 -16 0 -55 -15 -86 -34 -31 -18 -92 -53 -136 -76 -131 -71 -270 -167 -307 -213 -50 -60 -58 -80 -58 -135 0 -56 27 -105 75 -137 21 -13 48 -56 90 -139 77 -154 80 -156 253 -163 205 -8 525 28 604 68 62 32 104 81 111 129 3 26 17 57 37 81 67 84 74 138 30 227 -16 34 -30 65 -30 70 0 5 -8 24 -17 43 -11 22 -19 70 -22 139 -4 75 -11 113 -23 132 -38 58 -159 86 -287 67z m-451 -214 c0 -2 -18 -14 -40 -25 -22 -11 -40 -18 -40 -15 0 2 17 13 38 24 42 23 42 23 42 16z m552 -136 c36 -8 67 -24 99 -51 29 -24 52 -36 62 -32 14 5 14 1 -1 -45 -20 -61 -32 -65 -32 -12 0 33 -6 44 -36 69 -97 81 -277 83 -500 7 -133 -46 -283 -121 -293 -147 -8 -19 -10 -20 -10 -4 -1 10 -18 34 -38 52 -30 27 -33 34 -17 34 10 0 28 -7 38 -15 28 -21 41 -19 104 18 66 38 247 103 342 122 82 17 214 18 282 4z m-88 -69 c20 -22 42 -38 48 -34 6 4 14 1 18 -6 6 -9 -8 -28 -41 -58 -38 -34 -49 -51 -49 -74 0 -28 2 -30 28 -23 70 19 89 21 118 13 60 -15 48 -64 -23 -94 -40 -17 -85 -9 -114 22 -12 13 -33 24 -46 24 -28 0 -30 16 -3 25 15 5 20 15 20 45 0 32 6 43 30 60 17 12 30 29 30 39 0 28 -48 74 -70 68 -23 -6 -26 3 -8 21 18 18 21 16 62 -28z m-234 -5 c0 -3 -5 -14 -12 -24 -16 -26 -3 -51 27 -51 15 0 24 -4 20 -10 -9 -14 -48 -13 -63 2 -23 23 -9 88 20 88 4 0 8 -2 8 -5z m-491 -54 c-9 -32 -9 -46 1 -71 26 -62 79 -76 151 -38 79 41 176 33 203 -17 16 -29 22 -32 84 -34 92 -3 129 -44 81 -92 -69 -69 -229 -64 -276 8 -16 24 -15 26 13 49 16 13 41 27 57 30 40 9 41 20 3 43 -44 27 -81 26 -135 -4 -86 -49 -177 -21 -200 61 -10 36 -8 51 12 91 16 35 20 20 6 -26z m601 29 c0 -22 -80 -26 -87 -4 -2 7 13 12 42 12 25 1 45 -3 45 -8z m318 -101 c12 -18 21 -21 58 -16 49 5 57 -11 13 -27 -19 -6 -38 -3 -75 14 -53 25 -51 25 -78 14 -16 -6 -17 -5 -7 14 16 30 71 30 89 1z"/>
<path d="M932 423 c4 -33 37 -43 57 -19 20 24 6 46 -29 46 -28 0 -31 -3 -28 -27z"/>
<path d="M540 378 c0 -65 9 -73 55 -51 21 10 44 28 52 40 13 19 12 23 -4 31 -10 5 -37 13 -60 17 l-43 7 0 -44z"/>
<path d="M404 375 c-7 -18 3 -35 22 -35 8 0 14 10 14 25 0 27 -27 35 -36 10z"/>
<path d="M0 505 c0 -26 21 -58 77 -116 28 -29 54 -72 73 -118 34 -84 76 -141 125 -171 31 -19 48 -21 277 -21 268 -1 366 10 483 57 85 34 155 95 155 136 0 35 12 59 58 116 41 50 36 70 -5 22 -41 -46 -73 -109 -73 -141 0 -58 -124 -125 -287 -155 -130 -24 -564 -22 -601 2 -48 31 -82 78 -109 149 -18 48 -42 86 -74 120 -26 28 -59 71 -73 95 -18 31 -26 39 -26 25z"/>
</g>
<g id="layer103" fill="#6d6d6d" stroke="none">
<path d="M865 1109 c-188 -34 -272 -62 -405 -131 -166 -87 -345 -202 -385 -247 -42 -47 -75 -103 -74 -126 0 -13 4 -9 12 13 33 92 163 193 434 337 146 78 168 87 294 115 177 39 265 40 338 4 80 -40 101 -81 100 -191 -1 -80 2 -96 36 -178 43 -104 55 -128 61 -123 2 3 -17 53 -41 113 -42 100 -45 115 -45 197 0 74 -4 94 -22 122 -29 44 -77 76 -141 93 -57 15 -89 15 -162 2z"/>
<path d="M790 1055 c-30 -8 -72 -21 -92 -29 -21 -9 -52 -16 -70 -16 -18 0 -53 -12 -78 -26 -25 -15 -90 -51 -145 -81 -133 -73 -259 -158 -306 -207 -54 -56 -72 -99 -67 -158 6 -55 29 -93 75 -123 22 -14 44 -50 79 -124 32 -67 61 -114 85 -136 35 -31 39 -32 155 -39 199 -12 534 24 619 66 64 32 115 87 115 124 0 29 16 58 72 134 16 22 22 44 22 80 0 55 -17 80 -65 100 -16 7 -28 15 -25 17 2 2 18 -3 36 -12 30 -16 31 -16 21 3 -41 77 -71 204 -65 272 5 47 2 60 -18 90 -38 58 -96 80 -203 79 -49 0 -115 -7 -145 -14z m256 -111 c19 -15 19 -15 -1 -6 -11 5 -27 12 -35 15 -13 5 -13 6 1 6 8 1 24 -6 35 -15z m-69 -39 c20 -8 34 -18 31 -20 -3 -3 -25 4 -49 15 -51 23 -36 27 18 5z m-593 -65 c-64 -33 -119 -58 -122 -56 -4 5 215 116 230 116 6 0 -43 -27 -108 -60z m77 -1 c-40 -22 -75 -38 -77 -36 -4 4 128 77 141 77 6 0 -23 -18 -64 -41z m445 -109 c99 -17 104 -19 150 -62 36 -34 46 -38 59 -28 20 16 19 5 -3 -58 -20 -56 -32 -58 -32 -5 0 101 -184 158 -381 118 -157 -31 -448 -156 -450 -193 0 -11 -6 -6 -16 14 -8 17 -29 39 -45 49 -20 12 -27 20 -20 27 7 7 22 4 47 -11 42 -25 57 -22 123 20 24 15 83 40 131 55 47 15 91 30 96 34 9 7 114 30 195 43 47 8 86 7 146 -3z m-47 -74 c18 -19 47 -37 64 -40 l32 -7 -58 -52 c-37 -34 -57 -60 -57 -74 0 -31 10 -34 63 -16 54 18 102 10 121 -19 8 -14 5 -23 -18 -47 -16 -17 -42 -33 -57 -36 -36 -8 -91 9 -114 36 -11 12 -25 17 -37 13 -12 -3 -18 0 -18 10 0 8 9 18 20 21 15 5 20 15 20 45 0 32 6 44 30 62 17 12 30 27 30 34 0 24 -52 76 -72 71 -17 -5 -25 12 -11 26 13 14 30 6 62 -27z m-234 -23 c-19 -47 -18 -53 14 -59 37 -8 41 -24 7 -24 -41 0 -56 11 -56 40 0 39 9 60 27 60 11 0 13 -5 8 -17z m-484 -46 c-15 -45 2 -93 40 -112 39 -20 56 -19 113 10 81 41 181 31 204 -20 9 -19 21 -23 80 -29 55 -6 74 -12 92 -31 22 -23 22 -25 6 -50 -37 -57 -178 -85 -246 -50 -29 15 -60 51 -60 70 0 15 66 55 90 55 27 0 25 15 -6 39 -36 28 -64 26 -139 -10 -76 -36 -120 -33 -165 13 -39 38 -48 89 -25 137 21 42 32 27 16 -22z m597 31 c-3 -8 -21 -13 -43 -13 -22 0 -40 5 -42 13 -3 8 9 12 42 12 33 0 45 -4 43 -12z m320 -99 c12 -18 20 -21 58 -15 45 6 55 -2 29 -24 -20 -16 -81 -7 -115 18 -19 15 -29 17 -42 8 -22 -13 -35 -1 -18 19 19 23 73 19 88 -6z m142 -84 c-13 -14 -30 -25 -38 -25 -8 0 0 11 19 24 44 31 48 32 19 1z m-726 -234 c-4 -5 -91 47 -99 58 -3 5 19 -5 49 -22 29 -18 52 -34 50 -36z m355 5 c-2 -2 -31 -6 -64 -9 -39 -4 -51 -3 -35 2 25 9 107 15 99 7z"/>
<path d="M932 423 c3 -32 25 -40 52 -20 28 20 14 47 -24 47 -28 0 -31 -3 -28 -27z"/>
<path d="M540 381 c0 -65 21 -76 78 -41 34 21 43 54 16 64 -9 3 -33 6 -55 6 -36 0 -39 -2 -39 -29z"/>
<path d="M411 381 c-17 -11 -7 -41 14 -41 9 0 15 9 15 25 0 27 -6 30 -29 16z"/>
<path d="M0 500 c0 -21 24 -56 77 -111 28 -29 54 -72 73 -118 34 -84 76 -141 125 -171 31 -19 48 -21 277 -21 268 -1 366 10 483 57 85 34 155 95 155 136 0 35 12 59 58 116 19 23 32 45 30 48 -6 6 -69 -69 -87 -103 -6 -12 -11 -35 -11 -51 0 -58 -98 -123 -245 -164 -72 -20 -107 -22 -350 -24 -253 -2 -272 -1 -302 18 -47 28 -89 86 -123 169 -19 47 -45 89 -74 118 -24 25 -54 62 -65 81 -12 19 -21 28 -21 20z"/>
</g>
<g id="layer104" fill="#929292" stroke="none">
<path d="M865 1109 c-188 -34 -272 -62 -405 -131 -166 -87 -345 -202 -385 -247 -35 -39 -75 -101 -75 -116 1 -5 9 4 18 21 54 97 162 178 427 322 156 84 238 111 436 142 122 20 217 -10 274 -84 21 -28 25 -45 28 -126 l3 -95 2 93 c2 80 -1 97 -20 126 -29 44 -77 76 -141 93 -57 15 -89 15 -162 2z"/>
<path d="M805 1055 c-33 -7 -78 -20 -99 -29 -21 -9 -54 -16 -73 -16 -65 0 -460 -236 -540 -323 -23 -25 -47 -63 -54 -85 -22 -74 11 -156 78 -191 21 -11 35 -20 31 -21 -4 0 9 -31 28 -70 18 -38 34 -72 34 -75 0 -18 56 -89 83 -105 29 -18 51 -20 215 -20 188 0 370 14 386 31 6 5 31 9 56 9 94 0 210 85 210 155 0 23 11 48 36 80 55 73 59 87 44 151 -12 50 -18 58 -48 71 -19 8 -32 17 -29 19 3 3 15 0 27 -6 27 -15 35 -8 20 19 -33 63 -60 175 -60 252 0 78 -1 82 -33 114 -18 18 -51 38 -72 44 -53 14 -165 13 -240 -4z m219 -99 c19 -8 37 -19 41 -26 4 -7 -5 -5 -24 4 -17 9 -47 20 -68 25 -33 8 -34 9 -10 10 15 1 43 -5 61 -13z m-550 -76 c-51 -21 -114 -52 -141 -68 -51 -30 -113 -54 -83 -32 39 28 149 86 214 111 107 42 114 34 10 -11z m514 20 c17 -11 32 -25 32 -31 0 -8 -7 -6 -18 4 -10 9 -36 23 -58 31 -32 12 -35 15 -14 15 14 1 40 -8 58 -19z m-523 -60 c-65 -34 -119 -59 -122 -57 -5 5 214 117 229 117 6 0 -42 -27 -107 -60z m473 -114 c63 -11 79 -19 112 -51 29 -28 44 -36 60 -32 19 5 21 2 17 -16 -11 -43 -32 -97 -38 -97 -4 0 -9 21 -12 47 -3 33 -12 52 -28 64 -109 84 -264 88 -486 14 -132 -44 -303 -124 -303 -141 0 -25 -20 -25 -29 -1 -5 14 -23 34 -40 47 -17 12 -31 26 -31 31 0 17 37 9 65 -13 l28 -22 67 37 c134 73 379 145 500 146 25 0 78 -6 118 -13z m-72 -72 c18 -24 33 -34 45 -31 10 3 20 0 22 -7 3 -8 10 -8 26 2 31 18 40 14 10 -6 -14 -9 -47 -36 -72 -58 -36 -32 -47 -48 -47 -72 l0 -30 38 14 c60 21 99 18 129 -13 l27 -26 -35 -29 c-18 -16 -44 -31 -57 -34 -36 -10 -87 4 -111 30 -14 15 -30 22 -42 19 -26 -7 -25 23 1 37 14 8 20 21 20 46 0 27 7 41 30 61 17 13 30 29 30 33 0 5 -12 22 -26 39 -20 25 -31 30 -51 25 -23 -6 -24 -5 -14 15 17 31 46 26 77 -15z m-768 -14 c-14 -22 -24 -19 -15 5 4 8 11 15 17 15 6 0 6 -7 -2 -20z m532 -4 c0 -8 -4 -18 -10 -21 -20 -12 -10 -35 14 -35 14 0 28 -5 32 -11 10 -17 -15 -28 -45 -20 -20 6 -27 14 -29 40 -2 18 -1 39 2 47 7 18 36 18 36 0z m-487 -55 c-5 -57 -4 -61 25 -90 36 -37 71 -40 111 -10 63 46 209 33 226 -21 5 -17 15 -20 57 -20 58 0 115 -24 124 -52 8 -26 -37 -73 -84 -89 -18 -6 -65 -9 -103 -7 -59 3 -72 8 -99 33 -48 46 -39 66 50 106 l35 16 -35 21 c-45 28 -54 28 -125 -8 -68 -33 -91 -36 -140 -16 -49 21 -77 70 -72 123 4 37 20 73 33 73 2 0 1 -27 -3 -59z m594 35 c-2 -6 -22 -12 -45 -14 -35 -3 -42 0 -42 15 0 15 7 18 45 15 29 -3 45 -8 42 -16z m319 -92 c16 -23 21 -25 66 -19 52 7 56 5 32 -19 -21 -22 -62 -20 -109 4 -23 12 -48 17 -62 14 -23 -6 -29 2 -15 22 7 11 31 20 59 23 7 0 20 -11 29 -25z m142 -90 c-38 -34 -58 -43 -58 -24 0 6 6 10 14 10 8 0 27 13 43 29 15 16 30 27 33 24 3 -3 -12 -20 -32 -39z m-870 -31 c16 -16 16 -16 -1 -10 -10 4 -23 7 -28 7 -6 0 -7 5 -4 10 9 14 14 13 33 -7z m706 -118 c-6 -14 -35 -35 -49 -35 -5 0 46 49 52 50 1 0 0 -7 -3 -15z m-538 -44 c28 -6 32 -9 14 -10 -30 -1 -104 31 -116 50 -4 7 8 3 28 -9 19 -12 52 -26 74 -31z m-121 29 c11 -18 108 -63 165 -77 l55 -13 -52 4 c-51 5 -125 37 -173 75 -14 11 -20 21 -13 21 6 0 15 -5 18 -10z m96 -105 c30 -14 48 -25 41 -25 -25 0 -123 54 -160 88 l-37 34 51 -36 c28 -20 75 -47 105 -61z m478 79 c9 -8 -85 -2 -104 6 -12 5 4 6 40 3 33 -3 62 -7 64 -9z m-129 -44 c-41 -4 -93 -10 -115 -14 l-40 -5 40 13 c22 8 74 14 115 14 l75 -1 -75 -7z m160 -8 c0 -4 -16 -6 -35 -4 -19 2 -35 6 -35 8 0 2 16 4 35 4 19 0 35 -4 35 -8z m-171 -36 c-2 -2 -38 -6 -79 -9 -84 -7 -76 -1 15 11 56 8 74 7 64 -2z m-176 -23 c-13 -2 -33 -2 -45 0 -13 2 -3 4 22 4 25 0 35 -2 23 -4z"/>
<path d="M935 440 c-9 -15 4 -50 19 -50 7 0 20 8 29 18 13 14 14 21 5 30 -15 15 -45 16 -53 2z"/>
<path d="M548 364 c4 -44 5 -45 31 -39 37 9 71 33 71 50 0 19 -32 35 -72 35 l-33 0 3 -46z"/>
<path d="M413 383 c-18 -7 -16 -30 3 -37 23 -9 24 -8 24 19 0 25 -4 28 -27 18z"/>
<path d="M1211 735 c0 -5 9 -28 20 -50 10 -22 16 -29 13 -15 -7 28 -33 80 -33 65z"/>
<path d="M1251 635 c0 -5 6 -21 14 -35 8 -14 14 -20 14 -15 0 6 -6 21 -14 35 -8 14 -14 21 -14 15z"/>
<path d="M0 494 c0 -15 30 -56 77 -105 28 -29 54 -72 73 -118 34 -84 76 -141 125 -171 31 -19 48 -21 277 -21 268 -1 366 10 483 57 85 34 155 95 155 136 0 35 12 58 59 118 23 29 27 38 12 25 -39 -32 -81 -106 -81 -141 0 -24 -8 -39 -31 -59 -47 -39 -122 -74 -205 -95 -73 -19 -357 -46 -373 -36 -5 3 -69 6 -142 7 l-134 2 -55 56 c-42 42 -60 71 -75 116 -13 41 -34 76 -66 110 -26 28 -58 68 -73 89 -14 21 -26 35 -26 30z"/>
</g>
<g id="layer105" fill="#b6b6b6" stroke="none">
<path d="M770 1090 c-20 -6 -21 -8 -5 -8 11 0 34 4 50 8 27 7 27 8 5 8 -14 0 -36 -4 -50 -8z"/>
<path d="M690 1070 c-20 -6 -21 -8 -5 -8 11 0 29 3 40 8 25 11 -1 11 -35 0z"/>
<path d="M812 1055 c-35 -8 -88 -23 -119 -35 -31 -11 -63 -18 -71 -15 -8 3 -44 -11 -81 -31 -36 -21 -104 -58 -151 -84 -141 -78 -257 -158 -300 -208 -74 -86 -76 -167 -7 -236 22 -23 32 -31 23 -19 l-18 22 38 -20 c21 -10 51 -19 67 -19 25 0 28 -2 17 -15 -7 -8 -18 -15 -24 -15 -6 0 -4 5 4 10 12 8 11 10 -7 10 -12 0 -25 -4 -28 -10 -10 -17 97 -222 128 -244 25 -19 46 -21 195 -24 163 -4 392 12 402 28 3 4 32 9 65 12 108 8 197 69 210 145 3 24 17 57 31 75 13 18 30 42 38 53 8 11 18 34 21 50 5 25 3 24 -13 -10 -21 -44 -63 -78 -90 -73 -13 3 -9 8 15 21 51 27 73 63 73 119 0 45 -3 50 -35 69 -19 12 -35 26 -35 31 0 7 4 7 13 1 6 -6 20 -13 30 -16 15 -6 16 -4 7 14 -32 59 -60 174 -60 245 0 92 -16 126 -73 156 -53 27 -175 34 -265 13z m228 -103 c50 -27 48 -44 -2 -19 -27 14 -72 24 -123 28 l-80 6 85 1 c66 2 93 -2 120 -16z m-430 -26 c-104 -32 -171 -60 -268 -112 -45 -25 -88 -44 -95 -41 -12 4 84 60 173 101 62 28 215 75 245 75 11 0 -14 -10 -55 -23z m10 -25 c-36 -9 -116 -43 -178 -75 -62 -32 -115 -56 -118 -53 -8 8 185 109 246 128 30 10 69 18 85 18 20 -1 9 -6 -35 -18z m381 -7 c22 -20 26 -43 5 -24 -8 6 -36 20 -63 31 l-48 20 43 -5 c24 -2 52 -12 63 -22z m-273 -21 c-10 -2 -26 -2 -35 0 -10 3 -2 5 17 5 19 0 27 -2 18 -5z m105 0 c-13 -2 -35 -2 -50 0 -16 2 -5 4 22 4 28 0 40 -2 28 -4z m114 -147 c44 -10 73 -23 104 -49 32 -28 48 -35 66 -31 l23 6 -22 -61 c-12 -34 -25 -61 -29 -61 -4 0 -11 20 -14 44 -23 149 -284 174 -578 57 -163 -65 -227 -99 -237 -126 -11 -29 -30 -25 -30 5 0 10 -16 31 -35 46 -19 14 -35 30 -35 35 0 15 34 10 64 -10 32 -21 41 -20 107 21 59 36 232 97 339 119 103 21 194 23 277 5z m-79 -72 c19 -22 35 -33 42 -29 7 4 16 2 20 -5 6 -9 15 -8 41 4 l34 17 -35 -28 c-90 -72 -120 -106 -120 -134 l0 -28 35 15 c53 22 99 18 132 -11 l28 -25 -39 -35 c-50 -45 -108 -49 -154 -10 -17 14 -39 25 -50 25 -32 0 -35 17 -7 36 19 13 25 25 25 53 0 30 6 42 30 59 29 22 30 24 15 52 -18 35 -50 56 -61 39 -4 -7 -9 -8 -17 0 -13 13 9 41 33 41 10 0 32 -16 48 -36z m-741 15 c-11 -6 -28 -30 -39 -53 l-19 -41 5 35 c6 34 37 70 60 70 6 0 3 -5 -7 -11z m506 -16 c4 -3 0 -17 -9 -31 -17 -26 -11 -38 21 -44 26 -4 26 -32 0 -36 -31 -4 -56 20 -57 55 -1 43 26 76 45 56z m-483 -47 c-16 -42 -12 -81 10 -109 31 -39 69 -43 125 -12 68 36 165 36 200 0 14 -13 25 -29 25 -35 0 -6 24 -10 58 -10 62 0 122 -27 122 -56 0 -55 -75 -98 -170 -98 -76 0 -122 20 -145 64 l-16 30 48 30 c26 17 54 30 62 30 11 0 9 6 -9 20 -35 27 -95 25 -145 -5 -120 -74 -253 43 -189 167 20 38 40 25 24 -16z m568 24 c32 0 34 -2 22 -14 -16 -15 -31 -19 -67 -17 -16 1 -23 7 -23 22 0 15 4 19 16 15 9 -3 32 -6 52 -6z m482 -62 c0 -6 -7 -5 -15 2 -8 7 -15 17 -15 22 0 6 7 5 15 -2 8 -7 15 -17 15 -22z m-624 -6 c1 -7 0 -8 -3 -2 -2 5 -25 10 -49 10 -24 0 -44 4 -44 8 0 13 93 -2 96 -16z m481 -32 c7 -26 31 -32 73 -20 43 12 40 13 40 -5 0 -37 -75 -46 -134 -15 -27 15 -41 18 -50 11 -14 -12 -26 -5 -26 16 0 16 34 31 68 32 16 1 26 -6 29 -19z m145 -25 c-4 -32 -38 -72 -51 -60 -3 3 5 12 17 21 16 11 22 25 22 50 0 19 4 33 8 30 4 -3 6 -21 4 -41z m-868 -100 c6 -16 -3 -19 -28 -9 -9 3 -13 10 -10 15 8 14 31 11 38 -6z m517 -99 c15 -16 10 -29 -6 -16 -8 7 -14 27 -14 44 2 27 2 28 6 6 3 -14 9 -29 14 -34z m-337 -65 c28 -6 65 -12 81 -15 17 -3 -2 -3 -42 -1 -76 4 -133 26 -168 65 -16 18 -11 17 29 -8 27 -17 72 -36 100 -41z m145 23 c-19 -37 -29 -28 -10 10 9 18 18 29 20 24 2 -6 -2 -21 -10 -34z m381 31 c0 -30 -60 -55 -130 -55 -36 0 -72 4 -80 10 -23 14 -6 22 24 10 43 -16 108 -12 144 10 17 11 32 24 32 30 0 5 2 10 5 10 3 0 5 -7 5 -15z m-656 -29 c71 -54 128 -71 226 -69 153 5 420 8 420 6 0 -1 -9 -7 -20 -13 -15 -8 -40 -8 -94 1 -62 11 -89 10 -186 -5 -168 -26 -271 -5 -360 73 -55 49 -46 53 14 7z m5 -50 c111 -76 154 -84 313 -62 80 11 131 14 147 8 31 -11 -127 -27 -264 -27 -75 1 -98 5 -135 24 -42 23 -150 99 -150 107 0 9 13 2 89 -50z"/>
<path d="M935 441 c-3 -6 -1 -20 5 -31 9 -17 14 -18 31 -9 11 5 19 18 17 27 -4 19 -43 29 -53 13z"/>
<path d="M550 365 c0 -31 4 -45 14 -45 17 0 78 42 84 57 4 15 -37 33 -74 33 -22 0 -24 -4 -24 -45z"/>
<path d="M411 376 c-8 -10 -8 -16 2 -25 16 -13 27 -5 27 21 0 21 -13 23 -29 4z"/>
<path d="M595 1045 c-39 -18 -31 -18 25 -1 25 8 36 15 25 15 -11 0 -33 -6 -50 -14z"/>
<path d="M498 999 c-21 -11 -38 -22 -38 -24 0 -3 18 4 40 15 22 11 40 23 40 25 0 7 0 7 -42 -16z"/>
<path d="M365 927 c-170 -92 -287 -180 -334 -251 -7 -12 6 1 30 28 46 53 211 167 322 222 37 19 67 36 67 39 0 7 1 8 -85 -38z"/>
<path d="M77 390 c31 -35 58 -78 72 -115 28 -77 66 -131 115 -167 38 -28 41 -28 165 -26 l126 2 -130 5 c-112 5 -134 9 -161 28 -41 29 -78 85 -105 158 -16 43 -38 76 -77 115 l-55 55 50 -55z"/>
<path d="M1230 379 c-22 -28 -40 -56 -40 -62 0 -7 6 -3 12 8 6 11 27 39 46 63 19 23 32 42 28 42 -3 0 -24 -23 -46 -51z"/>
<path d="M1181 273 c-1 -23 -11 -40 -42 -67 -81 -69 -211 -104 -469 -125 l-115 -9 120 5 c236 9 386 49 471 127 39 35 45 46 41 71 l-4 30 -2 -32z"/>
</g>
<g id="layer106" fill="#f9f9f9" stroke="none">
<path d="M928 1113 c12 -2 32 -2 45 0 12 2 2 4 -23 4 -25 0 -35 -2 -22 -4z"/>
<path d="M851 1059 c-35 -5 -89 -19 -120 -31 -31 -11 -78 -24 -106 -27 -27 -4 -68 -18 -90 -32 -22 -14 -80 -47 -130 -74 -181 -97 -300 -187 -346 -260 -26 -41 -25 -120 1 -163 21 -35 33 -43 23 -15 -5 13 1 11 24 -8 19 -16 50 -29 77 -33 40 -6 44 -9 32 -22 -8 -8 -26 -14 -39 -14 -24 0 -24 0 23 -97 73 -150 96 -163 275 -162 84 1 93 3 56 10 -24 4 -62 17 -85 29 -48 23 -160 109 -153 117 3 3 35 -16 70 -41 124 -89 182 -101 352 -76 39 5 120 9 180 7 90 -2 116 1 143 16 57 31 112 87 112 113 0 32 22 80 57 124 l27 35 -27 -24 c-29 -26 -124 -46 -142 -30 -5 5 4 9 23 9 50 0 99 25 122 62 36 59 22 128 -29 146 -17 6 -31 16 -31 23 0 6 7 8 15 5 8 -3 23 -9 32 -13 13 -5 15 -3 8 13 -42 101 -56 161 -58 244 -2 79 -5 91 -27 115 -14 15 -39 33 -55 41 -44 18 -140 24 -214 13z m186 -103 c18 -9 39 -26 47 -38 18 -25 21 -58 6 -58 -5 0 -10 11 -10 24 0 19 -10 29 -47 48 -44 21 -60 23 -178 21 -79 0 -152 -7 -185 -16 l-55 -15 50 -2 50 -2 -79 -17 c-50 -12 -117 -38 -188 -75 -60 -32 -116 -56 -124 -54 -8 2 32 28 90 58 57 30 102 57 100 59 -3 3 -61 -23 -129 -58 -138 -69 -189 -78 -80 -13 128 75 298 132 458 152 103 13 236 6 274 -14z m-49 -50 c28 -14 48 -43 38 -54 -3 -2 -19 7 -36 21 -17 15 -49 29 -75 33 -25 3 -48 11 -52 17 -9 15 89 2 125 -17z m-143 -26 c13 -6 -14 -8 -75 -8 -74 1 -85 3 -50 8 64 10 102 10 125 0z m101 -151 c45 -8 70 -20 107 -51 39 -33 50 -38 63 -27 25 20 27 3 6 -58 -24 -69 -46 -76 -50 -16 -3 35 -9 48 -36 68 -44 33 -109 55 -164 55 l-46 0 38 -39 c21 -22 44 -37 51 -35 7 3 16 1 20 -5 4 -8 13 -6 28 4 12 8 28 15 37 14 10 0 7 -6 -10 -17 -81 -56 -140 -114 -140 -138 0 -21 4 -25 18 -19 28 12 99 18 126 11 14 -3 30 -16 37 -27 9 -17 7 -25 -13 -46 -50 -55 -115 -61 -174 -16 -17 12 -41 23 -52 23 -27 0 -30 28 -4 37 24 9 32 23 32 60 0 24 7 37 25 49 31 20 32 43 4 73 -15 16 -28 21 -45 17 -28 -7 -33 14 -8 38 14 15 12 16 -18 16 -115 0 -518 -152 -518 -195 0 -29 -20 -25 -33 7 -8 18 -26 39 -40 47 -15 8 -27 20 -27 28 0 18 33 16 69 -4 31 -18 32 -18 94 16 75 42 224 96 332 121 93 21 206 25 291 9z m-820 -61 c-26 -15 -46 -69 -47 -130 -1 -37 -3 -46 -8 -29 -4 14 -4 49 -1 79 5 43 12 60 34 79 16 13 31 21 35 18 3 -4 -2 -11 -13 -17z m510 -19 c3 -6 1 -16 -5 -22 -20 -20 -13 -47 13 -47 31 0 40 -14 21 -30 -9 -8 -25 -9 -42 -4 -16 4 -34 6 -40 5 -7 -1 -13 3 -13 9 0 5 -20 10 -44 10 -25 0 -48 5 -52 11 -4 8 11 10 50 7 45 -2 56 0 56 12 0 19 28 60 40 60 5 0 12 -5 16 -11z m-476 -13 c0 -7 -5 -27 -11 -45 -21 -59 15 -121 71 -121 16 0 47 9 68 20 84 44 192 30 217 -27 9 -20 17 -23 71 -23 92 0 133 -37 102 -93 -7 -12 -11 -33 -9 -47 2 -26 -23 -70 -33 -59 -4 4 1 20 11 37 23 39 15 46 -28 25 -23 -12 -57 -18 -105 -18 -61 0 -75 4 -106 27 -53 41 -55 63 -6 99 23 16 48 29 56 29 12 0 12 4 -3 20 -25 27 -75 26 -135 -5 -57 -29 -110 -32 -150 -9 -59 35 -81 123 -45 177 19 29 35 35 35 13z m587 -13 c4 -12 -34 -33 -61 -33 -19 0 -50 26 -43 36 9 15 100 11 104 -3z m449 -48 c24 -37 12 -108 -21 -123 -30 -14 -33 -3 -5 21 24 20 27 79 5 97 -8 7 -15 16 -15 21 0 18 20 9 36 -16z m-135 -46 c10 -19 17 -21 60 -16 37 5 49 3 49 -7 0 -41 -79 -51 -135 -18 -23 14 -37 17 -49 10 -29 -17 -42 6 -17 31 28 28 77 28 92 0z m-711 -99 c0 -5 -5 -10 -11 -10 -6 0 -8 -8 -4 -19 5 -15 1 -18 -20 -13 -30 5 -34 32 -5 32 11 0 20 5 20 10 0 6 5 10 10 10 6 0 10 -4 10 -10z m495 -91 c-4 -11 -1 -27 6 -35 6 -8 9 -18 5 -21 -11 -12 -26 19 -26 55 0 20 4 31 10 27 6 -4 8 -16 5 -26z m-381 -115 c76 -35 161 -41 254 -20 67 15 144 15 239 0 18 -3 42 0 53 6 13 7 20 7 20 1 0 -21 -42 -33 -93 -25 -86 12 -106 12 -201 -3 -168 -26 -283 -1 -375 82 -54 49 -53 66 2 21 24 -20 69 -47 101 -62z m6 30 c14 -4 61 -13 105 -20 l80 -12 -66 -1 c-79 -1 -157 20 -192 53 -41 38 -32 51 11 17 20 -16 48 -32 62 -37z m569 32 c-22 -47 -155 -69 -210 -36 -25 16 -2 21 43 9 59 -16 111 -5 145 31 32 34 38 33 22 -4z"/>
<path d="M940 419 c0 -15 5 -20 22 -17 34 5 37 38 4 38 -20 0 -26 -5 -26 -21z"/>
<path d="M550 372 c0 -21 3 -41 6 -45 9 -9 60 13 80 34 22 24 12 35 -43 43 l-43 6 0 -38z"/>
<path d="M407 374 c-9 -10 2 -24 19 -24 8 0 14 7 14 15 0 15 -21 21 -33 9z"/>
<path d="M338 914 c-38 -20 -36 -28 2 -9 17 9 30 18 30 20 0 7 -1 6 -32 -11z"/>
<path d="M125 779 c-16 -10 -25 -19 -19 -19 7 0 22 9 35 20 30 24 23 24 -16 -1z"/>
<path d="M70 398 c41 -45 50 -53 50 -45 0 2 -21 23 -47 47 l-48 45 45 -47z"/>
<path d="M1179 262 c-3 -20 -2 -29 4 -23 5 5 7 19 5 32 -3 20 -5 19 -9 -9z"/>
<path d="M160 244 c0 -11 38 -74 45 -74 2 0 -5 17 -17 38 -27 46 -28 48 -28 36z"/>
<path d="M1070 160 c-19 -11 -31 -19 -27 -20 11 0 67 29 67 35 0 7 -1 7 -40 -15z"/>
<path d="M725 140 l-40 -7 40 -1 c22 0 63 3 90 8 l50 7 -50 0 c-27 0 -68 -3 -90 -7z"/>
<path d="M343 83 c26 -2 68 -2 95 0 26 2 4 3 -48 3 -52 0 -74 -1 -47 -3z"/>
<path d="M768 83 c12 -2 30 -2 40 0 9 3 -1 5 -23 4 -22 0 -30 -2 -17 -4z"/>
<path d="M588 73 c18 -2 45 -2 60 0 15 2 0 4 -33 4 -33 0 -45 -2 -27 -4z"/>
</g>


</svg>